<svg width="140" height="140" viewBox="0 0 140 140" fill="none" xmlns="http://www.w3.org/2000/svg">
<circle cx="70" cy="70" r="70" fill="#1C3FB7"/>
<path d="M78 50L88 60V88.0164C88 89.112 87.1102 90 86.0132 90H53.9868C52.8895 90 52 89.0894 52 88.0164V51.9836C52 50.8881 52.8899 50 53.9868 50H78ZM73.058 74.8928L77.479 79.3138L80.3074 76.4852L75.8864 72.0644C77.6984 68.9966 77.2864 64.979 74.6504 62.3431C71.5262 59.219 66.461 59.219 63.3368 62.3431C60.2126 65.4673 60.2126 70.5326 63.3368 73.6568C65.9727 76.2928 69.9902 76.7048 73.058 74.8928ZM71.822 70.8284C70.26 72.3906 67.7274 72.3906 66.1652 70.8284C64.6031 69.2664 64.6031 66.7336 66.1652 65.1716C67.7274 63.6095 70.26 63.6095 71.822 65.1716C73.3842 66.7336 73.3842 69.2664 71.822 70.8284Z" fill="white"/>
</svg>
