<svg width="140" height="140" viewBox="0 0 140 140" fill="none" xmlns="http://www.w3.org/2000/svg">
<circle cx="70" cy="70" r="70" fill="#1C3FB7"/>
<path d="M62 54C62 56.2091 60.2091 58 58 58C55.7909 58 54 56.2091 54 54C54 51.7909 55.7909 50 58 50C60.2091 50 62 51.7909 62 54ZM56 78V90H52V66C52 62.6863 54.6863 60 58 60C59.6412 60 61.1285 60.6589 62.2117 61.7267L66.9606 66.2114L71.5862 61.5858L74.4146 64.4142L67.0402 71.7886L64 68.9174V90H60V78H56ZM58 64C56.8954 64 56 64.8954 56 66V74H60V66C60 64.8954 59.1046 64 58 64ZM84 56H66V52H86C87.1046 52 88 52.8954 88 54V76C88 77.1046 87.1046 78 86 78H79.1516L84.7986 90H80.3778L74.7308 78H66V74H84V56Z" fill="white"/>
</svg>
