<svg width="140" height="140" viewBox="0 0 140 140" fill="none" xmlns="http://www.w3.org/2000/svg">
<circle cx="70" cy="70" r="70" fill="#1C3FB7"/>
<path d="M58.4268 63.2562L57.9336 64.3876C57.5727 65.2158 56.4271 65.2158 56.0662 64.3876L55.5731 63.2562C54.6941 61.2389 53.1109 59.6328 51.1353 58.7542L49.6161 58.0784C48.7946 57.7131 48.7946 56.5176 49.6161 56.1522L51.0504 55.5143C53.0768 54.613 54.6883 52.9475 55.5522 50.8617L56.0586 49.6391C56.4116 48.787 57.5883 48.787 57.9413 49.6391L58.4476 50.8617C59.3115 52.9475 60.9232 54.613 62.9496 55.5143L64.3838 56.1522C65.2054 56.5176 65.2054 57.7131 64.3838 58.0784L62.8646 58.7542C60.889 59.6328 59.3058 61.2389 58.4268 63.2562ZM76 58L68.5406 70.4324L64 62L50 88H92L76 58ZM75.9746 84L70.7794 74.4756L75.7952 66.116L85.3334 84H75.9746ZM71.3032 84H56.6969L64 70.437L71.3032 84Z" fill="white"/>
</svg>
