<svg width="356" height="54" viewBox="0 0 356 54" fill="none" xmlns="http://www.w3.org/2000/svg">
<path fill-rule="evenodd" clip-rule="evenodd" d="M86.3623 17.2557C82.8064 17.2474 79.3605 18.4897 76.6262 20.7657V17.6121H67.7451V52.245H76.9822V30.105C77.975 28.8128 79.2424 27.7577 80.6926 27.0162C82.1427 26.2747 83.7394 25.8652 85.3671 25.8174C86.6271 25.7525 87.8872 25.9417 89.0728 26.3736V17.4933C88.1778 17.3361 87.2709 17.2566 86.3623 17.2557Z" fill="white"/>
<path fill-rule="evenodd" clip-rule="evenodd" d="M5.82536 41.6773C8.46293 43.9099 11.8108 45.1251 15.2648 45.1036C17.7514 45.1036 19.6689 43.8886 19.6689 42.1768C19.6689 36.9631 2.97196 38.8207 2.97196 27.6805C2.97196 21.0412 9.36648 16.8994 16.1871 16.8994C20.329 16.9108 24.3777 18.1305 27.838 20.4094L23.5175 27.1081C21.6105 25.6594 19.3024 24.837 16.9099 24.7537C14.3532 24.7537 12.2199 25.7527 12.2199 27.5374C12.2199 32.0356 28.9195 30.2509 28.9195 42.247C28.9195 48.889 22.4468 52.9579 15.2054 52.9579C10.2157 52.9094 5.36782 51.2903 1.34839 48.3301L5.82536 41.6773Z" fill="white"/>
<path fill-rule="evenodd" clip-rule="evenodd" d="M63.8024 34.606C63.8024 24.967 57.06 16.8994 47.5289 16.8994C37.2966 16.8994 30.7591 25.3234 30.7591 34.9651C30.6576 37.3622 31.0559 39.7542 31.9285 41.9888C32.8011 44.2234 34.129 46.2515 35.8275 47.9441C37.5261 49.6367 39.5581 50.9567 41.7942 51.8199C44.0303 52.6831 46.4214 53.0707 48.8154 52.9579C51.4785 52.993 54.1182 52.457 56.5572 51.3858C58.9961 50.3147 61.1778 48.7333 62.9556 46.7479L57.6965 41.464C56.5951 42.6806 55.2596 43.6619 53.7701 44.349C52.2806 45.0361 50.6678 45.4149 49.0284 45.4627C46.7249 45.5378 44.4794 44.7313 42.7489 43.2075C41.0183 41.6836 39.9327 39.5569 39.7131 37.2601H63.5894C63.7364 36.3832 63.8077 35.4952 63.8024 34.606ZM40.1392 30.4669C40.4707 28.7513 41.3907 27.2056 42.7401 26.0972C44.0895 24.9889 45.7835 24.3876 47.5289 24.3973C49.2105 24.3998 50.8331 25.0186 52.0902 26.1369C53.3473 27.2551 54.1519 28.7954 54.3522 30.4669H40.1392Z" fill="white"/>
<path fill-rule="evenodd" clip-rule="evenodd" d="M111.088 38.7477L120.538 17.6121H130.134L114.287 52.245H107.892L92.0449 17.6121H101.638L111.088 38.7477Z" fill="white"/>
<path fill-rule="evenodd" clip-rule="evenodd" d="M137.891 1.3501C139.059 1.37138 140.196 1.73775 141.157 2.40325C142.118 3.06874 142.862 4.00371 143.295 5.0908C143.727 6.17789 143.83 7.36869 143.589 8.51373C143.348 9.65877 142.774 10.707 141.94 11.527C141.106 12.347 140.049 12.9021 138.901 13.1226C137.753 13.3432 136.566 13.2194 135.488 12.7669C134.41 12.3143 133.49 11.553 132.842 10.5787C132.195 9.60434 131.85 8.46028 131.849 7.2901C131.849 6.50088 132.006 5.71954 132.311 4.99174C132.616 4.26393 133.063 3.60425 133.625 3.05124C134.188 2.49822 134.854 2.06296 135.587 1.77088C136.319 1.4788 137.102 1.33575 137.891 1.3501Z" fill="white"/>
<path d="M142.508 17.6121H133.271V52.245H142.508V17.6121Z" fill="white"/>
<path fill-rule="evenodd" clip-rule="evenodd" d="M180.697 45.1737C178.948 47.6772 176.599 49.7015 173.867 51.0614C171.134 52.4213 168.104 53.0733 165.055 52.9578C162.648 53.0189 160.254 52.5965 158.013 51.7157C155.772 50.8348 153.731 49.5133 152.009 47.8293C150.287 46.1453 148.92 44.1328 147.987 41.9108C147.055 39.6889 146.578 37.3024 146.582 34.8925C146.587 32.4826 147.074 30.098 148.015 27.8797C148.955 25.6613 150.331 23.6542 152.059 21.9769C153.788 20.2996 155.834 18.9861 158.078 18.114C160.323 17.2419 162.718 16.8289 165.125 16.8993C167.907 16.8785 170.658 17.4912 173.169 18.6909C175.681 19.8907 177.887 21.6462 179.621 23.8248L173.083 29.6082C172.172 28.3439 170.977 27.3108 169.595 26.5916C168.213 25.8724 166.682 25.4871 165.125 25.4664C163.886 25.4613 162.66 25.705 161.517 26.183C160.374 26.661 159.339 27.3636 158.473 28.2493C157.606 29.135 156.926 30.1856 156.472 31.3392C156.018 32.4927 155.8 33.7256 155.831 34.965C155.79 36.223 156.009 37.4759 156.475 38.6451C156.94 39.8142 157.642 40.8745 158.536 41.7593C159.43 42.644 160.498 43.3343 161.671 43.7866C162.844 44.239 164.098 44.4437 165.354 44.388C166.995 44.3553 168.604 43.9221 170.04 43.126C171.476 42.3299 172.697 41.1949 173.596 39.8196L180.697 45.1737Z" fill="white"/>
<path fill-rule="evenodd" clip-rule="evenodd" d="M214.253 46.745C212.475 48.7305 210.293 50.312 207.854 51.3831C205.415 52.4543 202.776 52.9902 200.112 52.955C197.719 53.0666 195.329 52.6781 193.094 51.8144C190.859 50.9507 188.828 49.6306 187.13 47.9381C185.432 46.2456 184.105 44.2179 183.233 41.9839C182.361 39.7499 181.963 37.3586 182.064 34.9622C182.064 25.3205 188.602 16.8965 198.834 16.8965C208.354 16.8965 215.105 24.9641 215.105 34.6031C215.111 35.4887 215.04 36.3732 214.892 37.2464H191.016C191.233 39.5437 192.317 41.6716 194.047 43.197C195.776 44.7224 198.022 45.5306 200.325 45.4571C201.965 45.4089 203.578 45.0299 205.068 44.3428C206.558 43.6557 207.894 42.6747 208.996 41.4584L214.253 46.745ZM205.655 30.4667C205.455 28.7954 204.651 27.2551 203.394 26.1368C202.138 25.0186 200.515 24.3997 198.834 24.3971C197.088 24.3868 195.394 24.9879 194.045 26.0964C192.695 27.2048 191.775 28.7508 191.444 30.4667H205.655Z" fill="white"/>
<path fill-rule="evenodd" clip-rule="evenodd" d="M218.778 52.2449V17.6121H227.659V20.3958C230.394 18.125 233.839 16.8876 237.393 16.8993C239.669 16.8929 241.919 17.3887 243.983 18.3514C246.046 19.3141 247.873 20.72 249.332 22.4693C251.989 25.9338 253.256 30.2675 252.884 34.6193V52.2449H243.647V33.885C243.776 32.7177 243.66 31.5361 243.305 30.4167C242.95 29.2973 242.365 28.2648 241.586 27.386C240.18 26.0829 238.315 25.3898 236.4 25.4583C234.773 25.5063 233.176 25.9156 231.726 26.6566C230.276 27.3977 229.009 28.4519 228.015 29.7431V52.2449H218.778Z" fill="white"/>
<path fill-rule="evenodd" clip-rule="evenodd" d="M276.671 16.8992C272.618 16.8907 268.657 18.1013 265.299 20.374C261.942 22.6467 259.344 25.8767 257.842 29.6453C256.34 33.4138 256.004 37.5472 256.876 41.5094C257.749 45.4716 259.79 49.0801 262.736 51.8669C263.427 52.5255 264.331 52.9148 265.283 52.9644C266.236 53.0139 267.175 52.7204 267.93 52.1369C270.423 50.2802 273.446 49.2775 276.553 49.2775C279.659 49.2775 282.683 50.2802 285.175 52.1369C285.937 52.7217 286.885 53.0126 287.844 52.9566C288.803 52.9006 289.709 52.5014 290.399 51.8318C293.321 49.0553 295.349 45.4683 296.222 41.5306C297.095 37.5929 296.774 33.4839 295.299 29.7303C293.824 25.9767 291.263 22.7496 287.944 20.4625C284.626 18.1755 280.7 16.9329 276.671 16.8938M276.553 47.2499C275.221 47.286 273.895 47.0499 272.657 46.5562C271.419 46.0625 270.295 45.3214 269.353 44.3782C268.41 43.4351 267.67 42.3095 267.176 41.0704C266.683 39.8312 266.447 38.5044 266.482 37.1708C266.482 34.4969 267.543 31.9326 269.432 30.0419C271.32 28.1512 273.882 27.089 276.553 27.089C279.224 27.089 281.785 28.1512 283.674 30.0419C285.562 31.9326 286.623 34.4969 286.623 37.1708C286.659 38.5044 286.423 39.8312 285.929 41.0704C285.436 42.3095 284.695 43.4351 283.753 44.3782C282.81 45.3214 281.686 46.0625 280.448 46.5562C279.21 47.0499 277.885 47.286 276.553 47.2499Z" fill="#62D84E"/>
<path fill-rule="evenodd" clip-rule="evenodd" d="M314.974 52.245H308.094L294.374 17.6121H303.598L311.12 37.4031L318.496 17.6121H326.204L333.513 37.4031L341.099 17.6121H350.326L336.606 52.245H329.726L322.35 32.5242L314.974 52.245Z" fill="white"/>
<path d="M350.431 48.33H349.651V49.7961H348.988V45.7839H350.606C350.776 45.7832 350.944 45.8161 351.1 45.8807C351.257 45.9453 351.4 46.0404 351.519 46.1604C351.639 46.2803 351.734 46.4229 351.799 46.5798C351.863 46.7367 351.896 46.9049 351.895 47.0745C351.893 47.3261 351.817 47.5714 351.675 47.7791C351.533 47.9868 351.333 48.1476 351.1 48.2409L352.011 49.8042H351.289L350.431 48.33ZM349.651 47.7387H350.606C350.785 47.7387 350.957 47.6676 351.083 47.541C351.209 47.4145 351.28 47.2428 351.28 47.0637C351.28 46.8847 351.209 46.713 351.083 46.5864C350.957 46.4599 350.785 46.3887 350.606 46.3887H349.66L349.651 47.7387Z" fill="white"/>
<path d="M350.336 44.1396C351.072 44.1391 351.791 44.357 352.403 44.7658C353.015 45.1746 353.492 45.7559 353.774 46.4362C354.056 47.1165 354.13 47.8652 353.987 48.5877C353.844 49.3101 353.49 49.9738 352.97 50.4947C352.45 51.0157 351.787 51.3706 351.066 51.5145C350.344 51.6584 349.596 51.5848 348.916 51.3031C348.237 51.0213 347.656 50.5441 347.247 49.9318C346.838 49.3194 346.62 48.5994 346.62 47.8629C346.621 46.8764 347.013 45.9306 347.71 45.2327C348.406 44.5348 349.351 44.1418 350.336 44.1396ZM350.336 43.551C349.483 43.551 348.649 43.8044 347.939 44.2791C347.229 44.7538 346.676 45.4285 346.35 46.2178C346.023 47.0072 345.938 47.8758 346.104 48.7138C346.271 49.5518 346.682 50.3216 347.285 50.9257C347.889 51.5299 348.657 51.9413 349.495 52.108C350.332 52.2747 351.199 52.1892 351.988 51.8622C352.776 51.5352 353.45 50.9815 353.924 50.2711C354.398 49.5607 354.652 48.7254 354.652 47.871C354.652 46.7253 354.197 45.6265 353.388 44.8163C352.578 44.0062 351.481 43.551 350.336 43.551Z" fill="white"/>
</svg>
