<svg width="290" height="44" viewBox="0 0 290 44" fill="none" xmlns="http://www.w3.org/2000/svg">
<path fill-rule="evenodd" clip-rule="evenodd" d="M70.3514 14.0601C67.4547 14.0533 64.6476 15.0656 62.4203 16.9201V14.3505H55.1857V42.5699H62.7103V24.5299C63.519 23.477 64.5514 22.6173 65.7327 22.0131C66.9141 21.4089 68.2147 21.0752 69.5407 21.0363C70.567 20.9835 71.5935 21.1376 72.5593 21.4895V14.2537C71.8303 14.1256 71.0915 14.0608 70.3514 14.0601Z" fill="#111928"/>
<path fill-rule="evenodd" clip-rule="evenodd" d="M70.3514 14.0601C67.4547 14.0533 64.6476 15.0656 62.4203 16.9201V14.3505H55.1857V42.5699H62.7103V24.5299C63.519 23.477 64.5514 22.6173 65.7327 22.0131C66.9141 21.4089 68.2147 21.0752 69.5407 21.0363C70.567 20.9835 71.5935 21.1376 72.5593 21.4895V14.2537C71.8303 14.1256 71.0915 14.0608 70.3514 14.0601Z" fill="black" fill-opacity="0.2"/>
<path fill-rule="evenodd" clip-rule="evenodd" d="M70.3514 14.0601C67.4547 14.0533 64.6476 15.0656 62.4203 16.9201V14.3505H55.1857V42.5699H62.7103V24.5299C63.519 23.477 64.5514 22.6173 65.7327 22.0131C66.9141 21.4089 68.2147 21.0752 69.5407 21.0363C70.567 20.9835 71.5935 21.1376 72.5593 21.4895V14.2537C71.8303 14.1256 71.0915 14.0608 70.3514 14.0601Z" fill="black" fill-opacity="0.2"/>
<path fill-rule="evenodd" clip-rule="evenodd" d="M70.3514 14.0601C67.4547 14.0533 64.6476 15.0656 62.4203 16.9201V14.3505H55.1857V42.5699H62.7103V24.5299C63.519 23.477 64.5514 22.6173 65.7327 22.0131C66.9141 21.4089 68.2147 21.0752 69.5407 21.0363C70.567 20.9835 71.5935 21.1376 72.5593 21.4895V14.2537C71.8303 14.1256 71.0915 14.0608 70.3514 14.0601Z" fill="black" fill-opacity="0.2"/>
<path fill-rule="evenodd" clip-rule="evenodd" d="M4.74548 33.9592C6.89406 35.7784 9.62126 36.7685 12.4349 36.751C14.4605 36.751 16.0225 35.761 16.0225 34.3662C16.0225 30.118 2.42109 31.6316 2.42109 22.5544C2.42109 17.1446 7.6301 13.7698 13.1862 13.7698C16.5602 13.7791 19.8584 14.7729 22.6771 16.6298L19.1576 22.088C17.6041 20.9075 15.7239 20.2374 13.775 20.1696C11.6923 20.1696 9.9545 20.9836 9.9545 22.4378C9.9545 26.103 23.5581 24.6488 23.5581 34.4234C23.5581 39.8354 18.2854 43.1508 12.3865 43.1508C8.32192 43.1113 4.37276 41.792 1.09851 39.38L4.74548 33.9592Z" fill="#111928"/>
<path fill-rule="evenodd" clip-rule="evenodd" d="M4.74548 33.9592C6.89406 35.7784 9.62126 36.7685 12.4349 36.751C14.4605 36.751 16.0225 35.761 16.0225 34.3662C16.0225 30.118 2.42109 31.6316 2.42109 22.5544C2.42109 17.1446 7.6301 13.7698 13.1862 13.7698C16.5602 13.7791 19.8584 14.7729 22.6771 16.6298L19.1576 22.088C17.6041 20.9075 15.7239 20.2374 13.775 20.1696C11.6923 20.1696 9.9545 20.9836 9.9545 22.4378C9.9545 26.103 23.5581 24.6488 23.5581 34.4234C23.5581 39.8354 18.2854 43.1508 12.3865 43.1508C8.32192 43.1113 4.37276 41.792 1.09851 39.38L4.74548 33.9592Z" fill="black" fill-opacity="0.2"/>
<path fill-rule="evenodd" clip-rule="evenodd" d="M4.74548 33.9592C6.89406 35.7784 9.62126 36.7685 12.4349 36.751C14.4605 36.751 16.0225 35.761 16.0225 34.3662C16.0225 30.118 2.42109 31.6316 2.42109 22.5544C2.42109 17.1446 7.6301 13.7698 13.1862 13.7698C16.5602 13.7791 19.8584 14.7729 22.6771 16.6298L19.1576 22.088C17.6041 20.9075 15.7239 20.2374 13.775 20.1696C11.6923 20.1696 9.9545 20.9836 9.9545 22.4378C9.9545 26.103 23.5581 24.6488 23.5581 34.4234C23.5581 39.8354 18.2854 43.1508 12.3865 43.1508C8.32192 43.1113 4.37276 41.792 1.09851 39.38L4.74548 33.9592Z" fill="black" fill-opacity="0.2"/>
<path fill-rule="evenodd" clip-rule="evenodd" d="M4.74548 33.9592C6.89406 35.7784 9.62126 36.7685 12.4349 36.751C14.4605 36.751 16.0225 35.761 16.0225 34.3662C16.0225 30.118 2.42109 31.6316 2.42109 22.5544C2.42109 17.1446 7.6301 13.7698 13.1862 13.7698C16.5602 13.7791 19.8584 14.7729 22.6771 16.6298L19.1576 22.088C17.6041 20.9075 15.7239 20.2374 13.775 20.1696C11.6923 20.1696 9.9545 20.9836 9.9545 22.4378C9.9545 26.103 23.5581 24.6488 23.5581 34.4234C23.5581 39.8354 18.2854 43.1508 12.3865 43.1508C8.32192 43.1113 4.37276 41.792 1.09851 39.38L4.74548 33.9592Z" fill="black" fill-opacity="0.2"/>
<path fill-rule="evenodd" clip-rule="evenodd" d="M51.9738 28.1974C51.9738 20.3434 46.4814 13.7698 38.7173 13.7698C30.382 13.7698 25.0566 20.6338 25.0566 28.49C24.9739 30.4432 25.2983 32.3922 26.0091 34.213C26.72 36.0337 27.8016 37.6863 29.1853 39.0655C30.569 40.4446 32.2243 41.5201 34.0458 42.2235C35.8673 42.9268 37.8152 43.2426 39.7653 43.1508C41.9347 43.1794 44.085 42.7426 46.0718 41.8698C48.0586 40.997 49.8358 39.7085 51.284 38.0908L46.9999 33.7854C46.1027 34.7766 45.0148 35.5762 43.8014 36.1361C42.5881 36.696 41.2743 37.0046 39.9388 37.0436C38.0624 37.1047 36.2332 36.4476 34.8235 35.206C33.4137 33.9643 32.5294 32.2314 32.3505 30.36H51.8003C51.92 29.6454 51.9781 28.9219 51.9738 28.1974ZM32.6976 24.8248C32.9676 23.4269 33.7171 22.1674 34.8163 21.2643C35.9156 20.3612 37.2955 19.8712 38.7173 19.8792C40.0872 19.8812 41.4089 20.3854 42.433 21.2966C43.457 22.2077 44.1125 23.4628 44.2757 24.8248H32.6976Z" fill="#111928"/>
<path fill-rule="evenodd" clip-rule="evenodd" d="M51.9738 28.1974C51.9738 20.3434 46.4814 13.7698 38.7173 13.7698C30.382 13.7698 25.0566 20.6338 25.0566 28.49C24.9739 30.4432 25.2983 32.3922 26.0091 34.213C26.72 36.0337 27.8016 37.6863 29.1853 39.0655C30.569 40.4446 32.2243 41.5201 34.0458 42.2235C35.8673 42.9268 37.8152 43.2426 39.7653 43.1508C41.9347 43.1794 44.085 42.7426 46.0718 41.8698C48.0586 40.997 49.8358 39.7085 51.284 38.0908L46.9999 33.7854C46.1027 34.7766 45.0148 35.5762 43.8014 36.1361C42.5881 36.696 41.2743 37.0046 39.9388 37.0436C38.0624 37.1047 36.2332 36.4476 34.8235 35.206C33.4137 33.9643 32.5294 32.2314 32.3505 30.36H51.8003C51.92 29.6454 51.9781 28.9219 51.9738 28.1974ZM32.6976 24.8248C32.9676 23.4269 33.7171 22.1674 34.8163 21.2643C35.9156 20.3612 37.2955 19.8712 38.7173 19.8792C40.0872 19.8812 41.4089 20.3854 42.433 21.2966C43.457 22.2077 44.1125 23.4628 44.2757 24.8248H32.6976Z" fill="black" fill-opacity="0.2"/>
<path fill-rule="evenodd" clip-rule="evenodd" d="M51.9738 28.1974C51.9738 20.3434 46.4814 13.7698 38.7173 13.7698C30.382 13.7698 25.0566 20.6338 25.0566 28.49C24.9739 30.4432 25.2983 32.3922 26.0091 34.213C26.72 36.0337 27.8016 37.6863 29.1853 39.0655C30.569 40.4446 32.2243 41.5201 34.0458 42.2235C35.8673 42.9268 37.8152 43.2426 39.7653 43.1508C41.9347 43.1794 44.085 42.7426 46.0718 41.8698C48.0586 40.997 49.8358 39.7085 51.284 38.0908L46.9999 33.7854C46.1027 34.7766 45.0148 35.5762 43.8014 36.1361C42.5881 36.696 41.2743 37.0046 39.9388 37.0436C38.0624 37.1047 36.2332 36.4476 34.8235 35.206C33.4137 33.9643 32.5294 32.2314 32.3505 30.36H51.8003C51.92 29.6454 51.9781 28.9219 51.9738 28.1974ZM32.6976 24.8248C32.9676 23.4269 33.7171 22.1674 34.8163 21.2643C35.9156 20.3612 37.2955 19.8712 38.7173 19.8792C40.0872 19.8812 41.4089 20.3854 42.433 21.2966C43.457 22.2077 44.1125 23.4628 44.2757 24.8248H32.6976Z" fill="black" fill-opacity="0.2"/>
<path fill-rule="evenodd" clip-rule="evenodd" d="M51.9738 28.1974C51.9738 20.3434 46.4814 13.7698 38.7173 13.7698C30.382 13.7698 25.0566 20.6338 25.0566 28.49C24.9739 30.4432 25.2983 32.3922 26.0091 34.213C26.72 36.0337 27.8016 37.6863 29.1853 39.0655C30.569 40.4446 32.2243 41.5201 34.0458 42.2235C35.8673 42.9268 37.8152 43.2426 39.7653 43.1508C41.9347 43.1794 44.085 42.7426 46.0718 41.8698C48.0586 40.997 49.8358 39.7085 51.284 38.0908L46.9999 33.7854C46.1027 34.7766 45.0148 35.5762 43.8014 36.1361C42.5881 36.696 41.2743 37.0046 39.9388 37.0436C38.0624 37.1047 36.2332 36.4476 34.8235 35.206C33.4137 33.9643 32.5294 32.2314 32.3505 30.36H51.8003C51.92 29.6454 51.9781 28.9219 51.9738 28.1974ZM32.6976 24.8248C32.9676 23.4269 33.7171 22.1674 34.8163 21.2643C35.9156 20.3612 37.2955 19.8712 38.7173 19.8792C40.0872 19.8812 41.4089 20.3854 42.433 21.2966C43.457 22.2077 44.1125 23.4628 44.2757 24.8248H32.6976Z" fill="black" fill-opacity="0.2"/>
<path fill-rule="evenodd" clip-rule="evenodd" d="M90.4933 31.5722L98.1915 14.3506H106.008L93.0989 42.57H87.8899L74.9805 14.3506H82.7951L90.4933 31.5722Z" fill="#111928"/>
<path fill-rule="evenodd" clip-rule="evenodd" d="M90.4933 31.5722L98.1915 14.3506H106.008L93.0989 42.57H87.8899L74.9805 14.3506H82.7951L90.4933 31.5722Z" fill="black" fill-opacity="0.2"/>
<path fill-rule="evenodd" clip-rule="evenodd" d="M90.4933 31.5722L98.1915 14.3506H106.008L93.0989 42.57H87.8899L74.9805 14.3506H82.7951L90.4933 31.5722Z" fill="black" fill-opacity="0.2"/>
<path fill-rule="evenodd" clip-rule="evenodd" d="M90.4933 31.5722L98.1915 14.3506H106.008L93.0989 42.57H87.8899L74.9805 14.3506H82.7951L90.4933 31.5722Z" fill="black" fill-opacity="0.2"/>
<path fill-rule="evenodd" clip-rule="evenodd" d="M112.326 1.09992C113.278 1.11726 114.204 1.41579 114.987 1.95804C115.771 2.50029 116.376 3.26212 116.729 4.1479C117.081 5.03368 117.164 6.00395 116.968 6.93695C116.772 7.86995 116.305 8.7241 115.625 9.39221C114.946 10.0603 114.085 10.5126 113.15 10.6924C112.215 10.8721 111.247 10.7712 110.369 10.4025C109.491 10.0337 108.741 9.41343 108.214 8.61951C107.687 7.82559 107.405 6.8934 107.405 5.93992C107.405 5.29685 107.533 4.66021 107.781 4.06718C108.03 3.47415 108.394 2.93664 108.852 2.48603C109.31 2.03543 109.853 1.68077 110.45 1.44278C111.046 1.20478 111.684 1.08823 112.326 1.09992Z" fill="#111928"/>
<path fill-rule="evenodd" clip-rule="evenodd" d="M112.326 1.09992C113.278 1.11726 114.204 1.41579 114.987 1.95804C115.771 2.50029 116.376 3.26212 116.729 4.1479C117.081 5.03368 117.164 6.00395 116.968 6.93695C116.772 7.86995 116.305 8.7241 115.625 9.39221C114.946 10.0603 114.085 10.5126 113.15 10.6924C112.215 10.8721 111.247 10.7712 110.369 10.4025C109.491 10.0337 108.741 9.41343 108.214 8.61951C107.687 7.82559 107.405 6.8934 107.405 5.93992C107.405 5.29685 107.533 4.66021 107.781 4.06718C108.03 3.47415 108.394 2.93664 108.852 2.48603C109.31 2.03543 109.853 1.68077 110.45 1.44278C111.046 1.20478 111.684 1.08823 112.326 1.09992Z" fill="black" fill-opacity="0.2"/>
<path fill-rule="evenodd" clip-rule="evenodd" d="M112.326 1.09992C113.278 1.11726 114.204 1.41579 114.987 1.95804C115.771 2.50029 116.376 3.26212 116.729 4.1479C117.081 5.03368 117.164 6.00395 116.968 6.93695C116.772 7.86995 116.305 8.7241 115.625 9.39221C114.946 10.0603 114.085 10.5126 113.15 10.6924C112.215 10.8721 111.247 10.7712 110.369 10.4025C109.491 10.0337 108.741 9.41343 108.214 8.61951C107.687 7.82559 107.405 6.8934 107.405 5.93992C107.405 5.29685 107.533 4.66021 107.781 4.06718C108.03 3.47415 108.394 2.93664 108.852 2.48603C109.31 2.03543 109.853 1.68077 110.45 1.44278C111.046 1.20478 111.684 1.08823 112.326 1.09992Z" fill="black" fill-opacity="0.2"/>
<path fill-rule="evenodd" clip-rule="evenodd" d="M112.326 1.09992C113.278 1.11726 114.204 1.41579 114.987 1.95804C115.771 2.50029 116.376 3.26212 116.729 4.1479C117.081 5.03368 117.164 6.00395 116.968 6.93695C116.772 7.86995 116.305 8.7241 115.625 9.39221C114.946 10.0603 114.085 10.5126 113.15 10.6924C112.215 10.8721 111.247 10.7712 110.369 10.4025C109.491 10.0337 108.741 9.41343 108.214 8.61951C107.687 7.82559 107.405 6.8934 107.405 5.93992C107.405 5.29685 107.533 4.66021 107.781 4.06718C108.03 3.47415 108.394 2.93664 108.852 2.48603C109.31 2.03543 109.853 1.68077 110.45 1.44278C111.046 1.20478 111.684 1.08823 112.326 1.09992Z" fill="black" fill-opacity="0.2"/>
<path d="M116.088 14.3506H108.563V42.57H116.088V14.3506Z" fill="#111928"/>
<path d="M116.088 14.3506H108.563V42.57H116.088V14.3506Z" fill="black" fill-opacity="0.2"/>
<path d="M116.088 14.3506H108.563V42.57H116.088V14.3506Z" fill="black" fill-opacity="0.2"/>
<path d="M116.088 14.3506H108.563V42.57H116.088V14.3506Z" fill="black" fill-opacity="0.2"/>
<path fill-rule="evenodd" clip-rule="evenodd" d="M147.197 36.8081C145.772 38.848 143.859 40.4974 141.633 41.6055C139.407 42.7135 136.939 43.2448 134.455 43.1507C132.494 43.2005 130.544 42.8563 128.719 42.1386C126.893 41.4209 125.23 40.3441 123.827 38.9719C122.425 37.5997 121.311 35.96 120.552 34.1495C119.792 32.339 119.403 30.3945 119.407 28.4308C119.411 26.4672 119.807 24.5242 120.574 22.7167C121.34 20.9091 122.46 19.2737 123.868 17.907C125.276 16.5403 126.944 15.4701 128.772 14.7595C130.6 14.0488 132.552 13.7123 134.512 13.7697C136.778 13.7528 139.019 14.252 141.065 15.2296C143.111 16.2071 144.908 17.6376 146.32 19.4127L140.995 24.1251C140.252 23.0949 139.279 22.2531 138.153 21.6671C137.027 21.0811 135.78 20.7671 134.512 20.7503C133.503 20.7462 132.504 20.9447 131.573 21.3342C130.642 21.7237 129.799 22.2962 129.093 23.0178C128.387 23.7395 127.833 24.5956 127.463 25.5355C127.093 26.4754 126.916 27.48 126.941 28.4899C126.907 29.5149 127.086 30.5358 127.465 31.4885C127.844 32.4411 128.416 33.305 129.145 34.026C129.873 34.7469 130.742 35.3093 131.698 35.6779C132.654 36.0465 133.675 36.2133 134.698 36.1679C136.035 36.1413 137.346 35.7883 138.516 35.1396C139.686 34.4909 140.68 33.5661 141.412 32.4455L147.197 36.8081Z" fill="#111928"/>
<path fill-rule="evenodd" clip-rule="evenodd" d="M147.197 36.8081C145.772 38.848 143.859 40.4974 141.633 41.6055C139.407 42.7135 136.939 43.2448 134.455 43.1507C132.494 43.2005 130.544 42.8563 128.719 42.1386C126.893 41.4209 125.23 40.3441 123.827 38.9719C122.425 37.5997 121.311 35.96 120.552 34.1495C119.792 32.339 119.403 30.3945 119.407 28.4308C119.411 26.4672 119.807 24.5242 120.574 22.7167C121.34 20.9091 122.46 19.2737 123.868 17.907C125.276 16.5403 126.944 15.4701 128.772 14.7595C130.6 14.0488 132.552 13.7123 134.512 13.7697C136.778 13.7528 139.019 14.252 141.065 15.2296C143.111 16.2071 144.908 17.6376 146.32 19.4127L140.995 24.1251C140.252 23.0949 139.279 22.2531 138.153 21.6671C137.027 21.0811 135.78 20.7671 134.512 20.7503C133.503 20.7462 132.504 20.9447 131.573 21.3342C130.642 21.7237 129.799 22.2962 129.093 23.0178C128.387 23.7395 127.833 24.5956 127.463 25.5355C127.093 26.4754 126.916 27.48 126.941 28.4899C126.907 29.5149 127.086 30.5358 127.465 31.4885C127.844 32.4411 128.416 33.305 129.145 34.026C129.873 34.7469 130.742 35.3093 131.698 35.6779C132.654 36.0465 133.675 36.2133 134.698 36.1679C136.035 36.1413 137.346 35.7883 138.516 35.1396C139.686 34.4909 140.68 33.5661 141.412 32.4455L147.197 36.8081Z" fill="black" fill-opacity="0.2"/>
<path fill-rule="evenodd" clip-rule="evenodd" d="M147.197 36.8081C145.772 38.848 143.859 40.4974 141.633 41.6055C139.407 42.7135 136.939 43.2448 134.455 43.1507C132.494 43.2005 130.544 42.8563 128.719 42.1386C126.893 41.4209 125.23 40.3441 123.827 38.9719C122.425 37.5997 121.311 35.96 120.552 34.1495C119.792 32.339 119.403 30.3945 119.407 28.4308C119.411 26.4672 119.807 24.5242 120.574 22.7167C121.34 20.9091 122.46 19.2737 123.868 17.907C125.276 16.5403 126.944 15.4701 128.772 14.7595C130.6 14.0488 132.552 13.7123 134.512 13.7697C136.778 13.7528 139.019 14.252 141.065 15.2296C143.111 16.2071 144.908 17.6376 146.32 19.4127L140.995 24.1251C140.252 23.0949 139.279 22.2531 138.153 21.6671C137.027 21.0811 135.78 20.7671 134.512 20.7503C133.503 20.7462 132.504 20.9447 131.573 21.3342C130.642 21.7237 129.799 22.2962 129.093 23.0178C128.387 23.7395 127.833 24.5956 127.463 25.5355C127.093 26.4754 126.916 27.48 126.941 28.4899C126.907 29.5149 127.086 30.5358 127.465 31.4885C127.844 32.4411 128.416 33.305 129.145 34.026C129.873 34.7469 130.742 35.3093 131.698 35.6779C132.654 36.0465 133.675 36.2133 134.698 36.1679C136.035 36.1413 137.346 35.7883 138.516 35.1396C139.686 34.4909 140.68 33.5661 141.412 32.4455L147.197 36.8081Z" fill="black" fill-opacity="0.2"/>
<path fill-rule="evenodd" clip-rule="evenodd" d="M147.197 36.8081C145.772 38.848 143.859 40.4974 141.633 41.6055C139.407 42.7135 136.939 43.2448 134.455 43.1507C132.494 43.2005 130.544 42.8563 128.719 42.1386C126.893 41.4209 125.23 40.3441 123.827 38.9719C122.425 37.5997 121.311 35.96 120.552 34.1495C119.792 32.339 119.403 30.3945 119.407 28.4308C119.411 26.4672 119.807 24.5242 120.574 22.7167C121.34 20.9091 122.46 19.2737 123.868 17.907C125.276 16.5403 126.944 15.4701 128.772 14.7595C130.6 14.0488 132.552 13.7123 134.512 13.7697C136.778 13.7528 139.019 14.252 141.065 15.2296C143.111 16.2071 144.908 17.6376 146.32 19.4127L140.995 24.1251C140.252 23.0949 139.279 22.2531 138.153 21.6671C137.027 21.0811 135.78 20.7671 134.512 20.7503C133.503 20.7462 132.504 20.9447 131.573 21.3342C130.642 21.7237 129.799 22.2962 129.093 23.0178C128.387 23.7395 127.833 24.5956 127.463 25.5355C127.093 26.4754 126.916 27.48 126.941 28.4899C126.907 29.5149 127.086 30.5358 127.465 31.4885C127.844 32.4411 128.416 33.305 129.145 34.026C129.873 34.7469 130.742 35.3093 131.698 35.6779C132.654 36.0465 133.675 36.2133 134.698 36.1679C136.035 36.1413 137.346 35.7883 138.516 35.1396C139.686 34.4909 140.68 33.5661 141.412 32.4455L147.197 36.8081Z" fill="black" fill-opacity="0.2"/>
<path fill-rule="evenodd" clip-rule="evenodd" d="M174.532 38.0886C173.083 39.7064 171.306 40.995 169.319 41.8678C167.333 42.7406 165.182 43.1773 163.013 43.1486C161.063 43.2395 159.116 42.923 157.295 42.2192C155.475 41.5154 153.82 40.4398 152.437 39.0607C151.054 37.6817 149.973 36.0294 149.263 34.2091C148.552 32.3889 148.228 30.4404 148.311 28.4878C148.311 20.6316 153.636 13.7676 161.971 13.7676C169.727 13.7676 175.226 20.3412 175.226 28.1952C175.231 28.9168 175.173 29.6375 175.052 30.349H155.602C155.78 32.2209 156.663 33.9547 158.072 35.1976C159.481 36.4405 161.31 37.0991 163.186 37.0392C164.522 36.9999 165.836 36.6911 167.05 36.1313C168.263 35.5714 169.352 34.772 170.25 33.781L174.532 38.0886ZM167.528 24.8248C167.365 23.463 166.71 22.2079 165.686 21.2968C164.663 20.3856 163.341 19.8813 161.971 19.8792C160.549 19.8708 159.169 20.3606 158.07 21.2638C156.971 22.167 156.221 23.4267 155.952 24.8248H167.528Z" fill="#111928"/>
<path fill-rule="evenodd" clip-rule="evenodd" d="M174.532 38.0886C173.083 39.7064 171.306 40.995 169.319 41.8678C167.333 42.7406 165.182 43.1773 163.013 43.1486C161.063 43.2395 159.116 42.923 157.295 42.2192C155.475 41.5154 153.82 40.4398 152.437 39.0607C151.054 37.6817 149.973 36.0294 149.263 34.2091C148.552 32.3889 148.228 30.4404 148.311 28.4878C148.311 20.6316 153.636 13.7676 161.971 13.7676C169.727 13.7676 175.226 20.3412 175.226 28.1952C175.231 28.9168 175.173 29.6375 175.052 30.349H155.602C155.78 32.2209 156.663 33.9547 158.072 35.1976C159.481 36.4405 161.31 37.0991 163.186 37.0392C164.522 36.9999 165.836 36.6911 167.05 36.1313C168.263 35.5714 169.352 34.772 170.25 33.781L174.532 38.0886ZM167.528 24.8248C167.365 23.463 166.71 22.2079 165.686 21.2968C164.663 20.3856 163.341 19.8813 161.971 19.8792C160.549 19.8708 159.169 20.3606 158.07 21.2638C156.971 22.167 156.221 23.4267 155.952 24.8248H167.528Z" fill="black" fill-opacity="0.2"/>
<path fill-rule="evenodd" clip-rule="evenodd" d="M174.532 38.0886C173.083 39.7064 171.306 40.995 169.319 41.8678C167.333 42.7406 165.182 43.1773 163.013 43.1486C161.063 43.2395 159.116 42.923 157.295 42.2192C155.475 41.5154 153.82 40.4398 152.437 39.0607C151.054 37.6817 149.973 36.0294 149.263 34.2091C148.552 32.3889 148.228 30.4404 148.311 28.4878C148.311 20.6316 153.636 13.7676 161.971 13.7676C169.727 13.7676 175.226 20.3412 175.226 28.1952C175.231 28.9168 175.173 29.6375 175.052 30.349H155.602C155.78 32.2209 156.663 33.9547 158.072 35.1976C159.481 36.4405 161.31 37.0991 163.186 37.0392C164.522 36.9999 165.836 36.6911 167.05 36.1313C168.263 35.5714 169.352 34.772 170.25 33.781L174.532 38.0886ZM167.528 24.8248C167.365 23.463 166.71 22.2079 165.686 21.2968C164.663 20.3856 163.341 19.8813 161.971 19.8792C160.549 19.8708 159.169 20.3606 158.07 21.2638C156.971 22.167 156.221 23.4267 155.952 24.8248H167.528Z" fill="black" fill-opacity="0.2"/>
<path fill-rule="evenodd" clip-rule="evenodd" d="M174.532 38.0886C173.083 39.7064 171.306 40.995 169.319 41.8678C167.333 42.7406 165.182 43.1773 163.013 43.1486C161.063 43.2395 159.116 42.923 157.295 42.2192C155.475 41.5154 153.82 40.4398 152.437 39.0607C151.054 37.6817 149.973 36.0294 149.263 34.2091C148.552 32.3889 148.228 30.4404 148.311 28.4878C148.311 20.6316 153.636 13.7676 161.971 13.7676C169.727 13.7676 175.226 20.3412 175.226 28.1952C175.231 28.9168 175.173 29.6375 175.052 30.349H155.602C155.78 32.2209 156.663 33.9547 158.072 35.1976C159.481 36.4405 161.31 37.0991 163.186 37.0392C164.522 36.9999 165.836 36.6911 167.05 36.1313C168.263 35.5714 169.352 34.772 170.25 33.781L174.532 38.0886ZM167.528 24.8248C167.365 23.463 166.71 22.2079 165.686 21.2968C164.663 20.3856 163.341 19.8813 161.971 19.8792C160.549 19.8708 159.169 20.3606 158.07 21.2638C156.971 22.167 156.221 23.4267 155.952 24.8248H167.528Z" fill="black" fill-opacity="0.2"/>
<path fill-rule="evenodd" clip-rule="evenodd" d="M178.218 42.57V14.3506H185.453V16.6188C187.681 14.7686 190.487 13.7603 193.382 13.7698C195.236 13.7646 197.069 14.1686 198.75 14.953C200.431 15.7375 201.919 16.8831 203.108 18.3084C205.272 21.1313 206.304 24.6625 206.001 28.2084V42.57H198.476V27.61C198.582 26.6589 198.487 25.6962 198.198 24.7841C197.909 23.8719 197.432 23.0307 196.798 22.3146C195.652 21.2528 194.133 20.6881 192.573 20.7438C191.247 20.783 189.947 21.1165 188.766 21.7203C187.585 22.3241 186.552 23.1831 185.743 24.2352V42.57H178.218Z" fill="#111928"/>
<path fill-rule="evenodd" clip-rule="evenodd" d="M178.218 42.57V14.3506H185.453V16.6188C187.681 14.7686 190.487 13.7603 193.382 13.7698C195.236 13.7646 197.069 14.1686 198.75 14.953C200.431 15.7375 201.919 16.8831 203.108 18.3084C205.272 21.1313 206.304 24.6625 206.001 28.2084V42.57H198.476V27.61C198.582 26.6589 198.487 25.6962 198.198 24.7841C197.909 23.8719 197.432 23.0307 196.798 22.3146C195.652 21.2528 194.133 20.6881 192.573 20.7438C191.247 20.783 189.947 21.1165 188.766 21.7203C187.585 22.3241 186.552 23.1831 185.743 24.2352V42.57H178.218Z" fill="black" fill-opacity="0.2"/>
<path fill-rule="evenodd" clip-rule="evenodd" d="M178.218 42.57V14.3506H185.453V16.6188C187.681 14.7686 190.487 13.7603 193.382 13.7698C195.236 13.7646 197.069 14.1686 198.75 14.953C200.431 15.7375 201.919 16.8831 203.108 18.3084C205.272 21.1313 206.304 24.6625 206.001 28.2084V42.57H198.476V27.61C198.582 26.6589 198.487 25.6962 198.198 24.7841C197.909 23.8719 197.432 23.0307 196.798 22.3146C195.652 21.2528 194.133 20.6881 192.573 20.7438C191.247 20.783 189.947 21.1165 188.766 21.7203C187.585 22.3241 186.552 23.1831 185.743 24.2352V42.57H178.218Z" fill="black" fill-opacity="0.2"/>
<path fill-rule="evenodd" clip-rule="evenodd" d="M178.218 42.57V14.3506H185.453V16.6188C187.681 14.7686 190.487 13.7603 193.382 13.7698C195.236 13.7646 197.069 14.1686 198.75 14.953C200.431 15.7375 201.919 16.8831 203.108 18.3084C205.272 21.1313 206.304 24.6625 206.001 28.2084V42.57H198.476V27.61C198.582 26.6589 198.487 25.6962 198.198 24.7841C197.909 23.8719 197.432 23.0307 196.798 22.3146C195.652 21.2528 194.133 20.6881 192.573 20.7438C191.247 20.783 189.947 21.1165 188.766 21.7203C187.585 22.3241 186.552 23.1831 185.743 24.2352V42.57H178.218Z" fill="black" fill-opacity="0.2"/>
<path fill-rule="evenodd" clip-rule="evenodd" d="M225.378 13.7698C222.077 13.7629 218.849 14.7493 216.114 16.6011C213.379 18.4529 211.263 21.0848 210.04 24.1555C208.816 27.2261 208.542 30.594 209.253 33.8225C209.964 37.051 211.627 39.9912 214.026 42.262C214.589 42.7986 215.325 43.1159 216.102 43.1562C216.878 43.1966 217.643 42.9574 218.258 42.482C220.288 40.9691 222.751 40.1521 225.282 40.1521C227.812 40.1521 230.275 40.9691 232.305 42.482C232.926 42.9585 233.698 43.1955 234.479 43.1499C235.26 43.1042 235.999 42.779 236.561 42.2334C238.942 39.9711 240.593 37.0483 241.305 33.8398C242.016 30.6313 241.754 27.2832 240.552 24.2247C239.351 21.1663 237.265 18.5367 234.561 16.6732C231.858 14.8098 228.66 13.7972 225.378 13.7654M225.282 38.5C224.196 38.5294 223.117 38.337 222.108 37.9347C221.1 37.5324 220.184 36.9286 219.416 36.1601C218.649 35.3916 218.045 34.4745 217.643 33.4648C217.241 32.4551 217.049 31.374 217.078 30.2874C217.078 28.1087 217.942 26.0192 219.481 24.4786C221.019 22.9381 223.106 22.0726 225.282 22.0726C227.457 22.0726 229.544 22.9381 231.082 24.4786C232.621 26.0192 233.485 28.1087 233.485 30.2874C233.514 31.374 233.322 32.4551 232.92 33.4648C232.518 34.4745 231.914 35.3916 231.147 36.1601C230.379 36.9286 229.463 37.5324 228.455 37.9347C227.446 38.337 226.367 38.5294 225.282 38.5Z" fill="#62D84E"/>
<path fill-rule="evenodd" clip-rule="evenodd" d="M256.58 42.57H250.975L239.799 14.3506H247.313L253.44 30.4766L259.449 14.3506H265.728L271.682 30.4766L277.862 14.3506H285.378L274.202 42.57H268.597L262.588 26.5012L256.58 42.57Z" fill="#111928"/>
<path fill-rule="evenodd" clip-rule="evenodd" d="M256.58 42.57H250.975L239.799 14.3506H247.313L253.44 30.4766L259.449 14.3506H265.728L271.682 30.4766L277.862 14.3506H285.378L274.202 42.57H268.597L262.588 26.5012L256.58 42.57Z" fill="black" fill-opacity="0.2"/>
<path fill-rule="evenodd" clip-rule="evenodd" d="M256.58 42.57H250.975L239.799 14.3506H247.313L253.44 30.4766L259.449 14.3506H265.728L271.682 30.4766L277.862 14.3506H285.378L274.202 42.57H268.597L262.588 26.5012L256.58 42.57Z" fill="black" fill-opacity="0.2"/>
<path fill-rule="evenodd" clip-rule="evenodd" d="M256.58 42.57H250.975L239.799 14.3506H247.313L253.44 30.4766L259.449 14.3506H265.728L271.682 30.4766L277.862 14.3506H285.378L274.202 42.57H268.597L262.588 26.5012L256.58 42.57Z" fill="black" fill-opacity="0.2"/>
<path d="M285.463 39.38H284.828V40.5746H284.288V37.3054H285.606C285.744 37.3048 285.881 37.3317 286.009 37.3843C286.136 37.4369 286.252 37.5144 286.35 37.6121C286.448 37.7099 286.525 37.8261 286.578 37.9539C286.63 38.0818 286.657 38.2188 286.656 38.357C286.655 38.562 286.592 38.7618 286.477 38.9311C286.361 39.1004 286.198 39.2314 286.008 39.3074L286.751 40.5812H286.162L285.463 39.38ZM284.828 38.8982H285.606C285.752 38.8982 285.892 38.8403 285.995 38.7371C286.098 38.634 286.155 38.4941 286.155 38.3482C286.155 38.2024 286.098 38.0625 285.995 37.9593C285.892 37.8562 285.752 37.7982 285.606 37.7982H284.835L284.828 38.8982Z" fill="#111928"/>
<path d="M285.463 39.38H284.828V40.5746H284.288V37.3054H285.606C285.744 37.3048 285.881 37.3317 286.009 37.3843C286.136 37.4369 286.252 37.5144 286.35 37.6121C286.448 37.7099 286.525 37.8261 286.578 37.9539C286.63 38.0818 286.657 38.2188 286.656 38.357C286.655 38.562 286.592 38.7618 286.477 38.9311C286.361 39.1004 286.198 39.2314 286.008 39.3074L286.751 40.5812H286.162L285.463 39.38ZM284.828 38.8982H285.606C285.752 38.8982 285.892 38.8403 285.995 38.7371C286.098 38.634 286.155 38.4941 286.155 38.3482C286.155 38.2024 286.098 38.0625 285.995 37.9593C285.892 37.8562 285.752 37.7982 285.606 37.7982H284.835L284.828 38.8982Z" fill="black" fill-opacity="0.2"/>
<path d="M285.463 39.38H284.828V40.5746H284.288V37.3054H285.606C285.744 37.3048 285.881 37.3317 286.009 37.3843C286.136 37.4369 286.252 37.5144 286.35 37.6121C286.448 37.7099 286.525 37.8261 286.578 37.9539C286.63 38.0818 286.657 38.2188 286.656 38.357C286.655 38.562 286.592 38.7618 286.477 38.9311C286.361 39.1004 286.198 39.2314 286.008 39.3074L286.751 40.5812H286.162L285.463 39.38ZM284.828 38.8982H285.606C285.752 38.8982 285.892 38.8403 285.995 38.7371C286.098 38.634 286.155 38.4941 286.155 38.3482C286.155 38.2024 286.098 38.0625 285.995 37.9593C285.892 37.8562 285.752 37.7982 285.606 37.7982H284.835L284.828 38.8982Z" fill="black" fill-opacity="0.2"/>
<path d="M285.463 39.38H284.828V40.5746H284.288V37.3054H285.606C285.744 37.3048 285.881 37.3317 286.009 37.3843C286.136 37.4369 286.252 37.5144 286.35 37.6121C286.448 37.7099 286.525 37.8261 286.578 37.9539C286.63 38.0818 286.657 38.2188 286.656 38.357C286.655 38.562 286.592 38.7618 286.477 38.9311C286.361 39.1004 286.198 39.2314 286.008 39.3074L286.751 40.5812H286.162L285.463 39.38ZM284.828 38.8982H285.606C285.752 38.8982 285.892 38.8403 285.995 38.7371C286.098 38.634 286.155 38.4941 286.155 38.3482C286.155 38.2024 286.098 38.0625 285.995 37.9593C285.892 37.8562 285.752 37.7982 285.606 37.7982H284.835L284.828 38.8982Z" fill="black" fill-opacity="0.2"/>
<path d="M285.386 35.9657C285.986 35.9652 286.572 36.1428 287.07 36.4759C287.569 36.809 287.957 37.2827 288.187 37.837C288.417 38.3913 288.477 39.0014 288.36 39.59C288.244 40.1786 287.955 40.7194 287.532 41.1439C287.108 41.5684 286.568 41.8576 285.981 41.9748C285.393 42.0921 284.784 42.0321 284.23 41.8026C283.676 41.573 283.203 41.1842 282.87 40.6852C282.537 40.1862 282.359 39.5996 282.359 38.9995C282.36 38.1956 282.679 37.425 283.247 36.8563C283.814 36.2877 284.584 35.9674 285.386 35.9657ZM285.386 35.4861C284.691 35.4861 284.012 35.6925 283.434 36.0793C282.856 36.4661 282.405 37.0158 282.139 37.659C281.873 38.3022 281.803 39.01 281.939 39.6928C282.075 40.3756 282.409 41.0028 282.901 41.4951C283.392 41.9874 284.019 42.3226 284.701 42.4585C285.383 42.5943 286.089 42.5246 286.732 42.2581C287.374 41.9917 287.923 41.5406 288.309 40.9617C288.695 40.3828 288.902 39.7023 288.902 39.0061C288.902 38.0725 288.531 37.1772 287.872 36.5171C287.213 35.8569 286.319 35.4861 285.386 35.4861Z" fill="#111928"/>
<path d="M285.386 35.9657C285.986 35.9652 286.572 36.1428 287.07 36.4759C287.569 36.809 287.957 37.2827 288.187 37.837C288.417 38.3913 288.477 39.0014 288.36 39.59C288.244 40.1786 287.955 40.7194 287.532 41.1439C287.108 41.5684 286.568 41.8576 285.981 41.9748C285.393 42.0921 284.784 42.0321 284.23 41.8026C283.676 41.573 283.203 41.1842 282.87 40.6852C282.537 40.1862 282.359 39.5996 282.359 38.9995C282.36 38.1956 282.679 37.425 283.247 36.8563C283.814 36.2877 284.584 35.9674 285.386 35.9657ZM285.386 35.4861C284.691 35.4861 284.012 35.6925 283.434 36.0793C282.856 36.4661 282.405 37.0158 282.139 37.659C281.873 38.3022 281.803 39.01 281.939 39.6928C282.075 40.3756 282.409 41.0028 282.901 41.4951C283.392 41.9874 284.019 42.3226 284.701 42.4585C285.383 42.5943 286.089 42.5246 286.732 42.2581C287.374 41.9917 287.923 41.5406 288.309 40.9617C288.695 40.3828 288.902 39.7023 288.902 39.0061C288.902 38.0725 288.531 37.1772 287.872 36.5171C287.213 35.8569 286.319 35.4861 285.386 35.4861Z" fill="black" fill-opacity="0.2"/>
<path d="M285.386 35.9657C285.986 35.9652 286.572 36.1428 287.07 36.4759C287.569 36.809 287.957 37.2827 288.187 37.837C288.417 38.3913 288.477 39.0014 288.36 39.59C288.244 40.1786 287.955 40.7194 287.532 41.1439C287.108 41.5684 286.568 41.8576 285.981 41.9748C285.393 42.0921 284.784 42.0321 284.23 41.8026C283.676 41.573 283.203 41.1842 282.87 40.6852C282.537 40.1862 282.359 39.5996 282.359 38.9995C282.36 38.1956 282.679 37.425 283.247 36.8563C283.814 36.2877 284.584 35.9674 285.386 35.9657ZM285.386 35.4861C284.691 35.4861 284.012 35.6925 283.434 36.0793C282.856 36.4661 282.405 37.0158 282.139 37.659C281.873 38.3022 281.803 39.01 281.939 39.6928C282.075 40.3756 282.409 41.0028 282.901 41.4951C283.392 41.9874 284.019 42.3226 284.701 42.4585C285.383 42.5943 286.089 42.5246 286.732 42.2581C287.374 41.9917 287.923 41.5406 288.309 40.9617C288.695 40.3828 288.902 39.7023 288.902 39.0061C288.902 38.0725 288.531 37.1772 287.872 36.5171C287.213 35.8569 286.319 35.4861 285.386 35.4861Z" fill="black" fill-opacity="0.2"/>
<path d="M285.386 35.9657C285.986 35.9652 286.572 36.1428 287.07 36.4759C287.569 36.809 287.957 37.2827 288.187 37.837C288.417 38.3913 288.477 39.0014 288.36 39.59C288.244 40.1786 287.955 40.7194 287.532 41.1439C287.108 41.5684 286.568 41.8576 285.981 41.9748C285.393 42.0921 284.784 42.0321 284.23 41.8026C283.676 41.573 283.203 41.1842 282.87 40.6852C282.537 40.1862 282.359 39.5996 282.359 38.9995C282.36 38.1956 282.679 37.425 283.247 36.8563C283.814 36.2877 284.584 35.9674 285.386 35.9657ZM285.386 35.4861C284.691 35.4861 284.012 35.6925 283.434 36.0793C282.856 36.4661 282.405 37.0158 282.139 37.659C281.873 38.3022 281.803 39.01 281.939 39.6928C282.075 40.3756 282.409 41.0028 282.901 41.4951C283.392 41.9874 284.019 42.3226 284.701 42.4585C285.383 42.5943 286.089 42.5246 286.732 42.2581C287.374 41.9917 287.923 41.5406 288.309 40.9617C288.695 40.3828 288.902 39.7023 288.902 39.0061C288.902 38.0725 288.531 37.1772 287.872 36.5171C287.213 35.8569 286.319 35.4861 285.386 35.4861Z" fill="black" fill-opacity="0.2"/>
</svg>
